# xmcd
#
# Track frame offsets: 
#        150
#        19442
#        31302
#        35560
#        60402
#        79292
#        104380
#        122282
#        146232
#        162480
#        187472
#
# Disc length: 2918 seconds
#
# Revision: 5
# Processed by: cddbd v1.5.2PL0 Copyright (c) Steve Scherf et al.
# Submitted via: ExactAudioCopy v1.0b3
#
DISCID=9d0b640b
DTITLE=My Bloody Valentine - Loveless
DYEAR=1991
DGENRE=Alternative
TTITLE0=Only Shallow
TTITLE1=Loomer
TTITLE2=Touched
TTITLE3=To Here Knows When
TTITLE4=When You Sleep
TTITLE5=I Only Said
TTITLE6=Come in Alone
TTITLE7=Sometimes
TTITLE8=Blown a Wish
TTITLE9=What You Want
TTITLE10=Soon
EXTD=YEAR: 1991
EXTT0=
EXTT1=
EXTT2=
EXTT3=
EXTT4=
EXTT5=
EXTT6=
EXTT7=
EXTT8=
EXTT9=
EXTT10=
PLAYORDER=
